<svg width="27" height="28" viewBox="0 0 27 28" fill="none" xmlns="http://www.w3.org/2000/svg">
<path d="M16.2838 27.8738C18.1141 27.8738 19.5978 26.39 19.5978 24.5596C19.5978 22.7293 18.1141 21.2455 16.2838 21.2455C14.4534 21.2455 12.9697 22.7293 12.9697 24.5596C12.9697 26.39 14.4534 27.8738 16.2838 27.8738Z" fill="#6FCACF"/>
<path d="M10.5777 6.62818C12.408 6.62818 13.8917 5.14448 13.8917 3.31414C13.8917 1.4838 12.408 0 10.5777 0C8.74737 0 7.26367 1.4838 7.26367 3.31414C7.26367 5.14448 8.74737 6.62818 10.5777 6.62818Z" fill="#6FCACF"/>
<path d="M19.7302 10.6666C21.7666 10.6666 23.4174 9.01571 23.4174 6.97931C23.4174 4.9429 21.7666 3.29211 19.7302 3.29211C17.6938 3.29211 16.043 4.9429 16.043 6.97931C16.043 9.01571 17.6938 10.6666 19.7302 10.6666Z" fill="#6FCACF"/>
<path d="M22.3854 20.5432C24.4218 20.5432 26.0726 18.8923 26.0726 16.8559C26.0726 14.8195 24.4218 13.1687 22.3854 13.1687C20.349 13.1687 18.6982 14.8195 18.6982 16.8559C18.6982 18.8923 20.349 20.5432 22.3854 20.5432Z" fill="#6FCACF"/>
<path d="M12.7064 18.9848C12.7284 18.9848 12.7504 18.9847 12.7504 18.9628C15.0549 18.3483 16.4375 15.8462 15.801 13.3661C15.1645 10.8421 12.7065 9.28377 10.3361 9.92026C10.3141 9.92026 10.2702 9.94223 10.2482 9.94223C9.21667 10.2495 8.09733 9.94221 7.28526 9.15208C6.14397 8.05469 4.51979 7.59383 2.9615 8.09863C0.810611 8.80096 -0.418338 11.1932 0.130357 13.5416C0.327887 14.3537 0.700958 15.056 1.18381 15.6267C1.88614 16.4168 2.17138 17.5143 1.97385 18.5678C1.84216 19.314 1.86423 20.104 2.10566 20.8942C2.80799 23.2206 5.06853 24.6692 7.28526 24.1863C8.88745 23.8571 10.0727 22.628 10.5116 21.1136C10.8408 20.0602 11.6529 19.2481 12.7064 18.9848Z" fill="#6FCACF"/>
</svg>
